<svg width="20" height="20" viewBox="0 0 20 20" fill="none" xmlns="http://www.w3.org/2000/svg">
<path d="M16.4859 10.0659C16.3492 9.57758 16.1951 9.06091 16.0234 8.50508C15.515 7.1036 15.1716 5.64768 15.0001 4.16675C15.0001 3.94573 15.0879 3.73377 15.2442 3.57749C15.4004 3.42121 15.6124 3.33341 15.8334 3.33341C16.0544 3.33341 16.2664 3.42121 16.4227 3.57749C16.5789 3.73377 16.6667 3.94573 16.6667 4.16675C16.6667 4.38776 16.7545 4.59972 16.9108 4.756C17.0671 4.91228 17.2791 5.00008 17.5001 5.00008C17.7211 5.00008 17.9331 4.91228 18.0893 4.756C18.2456 4.59972 18.3334 4.38776 18.3334 4.16675C18.3334 3.50371 18.07 2.86782 17.6012 2.39898C17.1323 1.93014 16.4964 1.66675 15.8334 1.66675C15.1704 1.66675 14.5345 1.93014 14.0656 2.39898C13.5968 2.86782 13.3334 3.50371 13.3334 4.16675C13.3541 4.80308 13.4432 5.43534 13.5992 6.05258L9.59924 9.16675L4.97591 5.83341H7.50007C7.72109 5.83341 7.93305 5.74562 8.08933 5.58934C8.24561 5.43306 8.33341 5.22109 8.33341 5.00008C8.33341 4.77907 8.24561 4.56711 8.08933 4.41083C7.93305 4.25455 7.72109 4.16675 7.50007 4.16675H4.97591C4.62971 4.16664 4.29235 4.27604 4.0121 4.47929C3.73185 4.68253 3.52306 4.96921 3.41561 5.29831C3.30816 5.62741 3.30756 5.98206 3.41388 6.31152C3.52021 6.64099 3.72802 6.92838 4.00757 7.13258L8.23341 10.2259L7.03508 11.1584C6.29073 10.4576 5.31283 10.0579 4.29071 10.0367C3.26859 10.0155 2.27497 10.3743 1.50221 11.0437C0.729458 11.713 0.232549 12.6453 0.107695 13.66C-0.0171588 14.6747 0.238924 15.6996 0.826362 16.5363C1.4138 17.373 2.2908 17.962 3.28757 18.1892C4.28434 18.4165 5.32996 18.2658 6.222 17.7663C7.11403 17.2668 7.78901 16.4542 8.11625 15.4856C8.4435 14.5171 8.39972 13.4615 7.99341 12.5234L14.0676 7.79925C14.1851 8.19591 14.6734 9.78591 14.7809 10.1517C13.7848 10.4118 12.9205 11.0318 12.3549 11.892C11.7893 12.7522 11.5626 13.7915 11.7186 14.809C11.8746 15.8266 12.4022 16.7503 13.1995 17.4015C13.9968 18.0528 15.0072 18.3854 16.0354 18.3351C17.0636 18.2849 18.0368 17.8553 18.7667 17.1294C19.4967 16.4035 19.9317 15.4328 19.9878 14.4049C20.0438 13.3769 19.7168 12.3647 19.07 11.5638C18.4233 10.7629 17.5026 10.2301 16.4859 10.0684V10.0659ZM4.16674 16.6667C3.67229 16.6667 3.18894 16.5201 2.77782 16.2454C2.36669 15.9707 2.04626 15.5803 1.85704 15.1235C1.66782 14.6666 1.61832 14.164 1.71478 13.679C1.81124 13.1941 2.04934 12.7486 2.39897 12.399C2.74861 12.0493 3.19406 11.8112 3.67902 11.7148C4.16397 11.6183 4.66663 11.6678 5.12345 11.857C5.58027 12.0463 5.97071 12.3667 6.24542 12.7778C6.52012 13.1889 6.66674 13.6723 6.66674 14.1667C6.66674 14.8298 6.40335 15.4657 5.93451 15.9345C5.46567 16.4034 4.82978 16.6667 4.16674 16.6667ZM15.8334 16.6667C15.339 16.6667 14.8556 16.5201 14.4445 16.2454C14.0334 15.9707 13.7129 15.5803 13.5237 15.1235C13.3345 14.6666 13.285 14.164 13.3814 13.679C13.4779 13.1941 13.716 12.7486 14.0656 12.399C14.4153 12.0493 14.8607 11.8112 15.3457 11.7148C15.8306 11.6183 16.3333 11.6678 16.7901 11.857C17.2469 12.0463 17.6374 12.3667 17.9121 12.7778C18.1868 13.1889 18.3334 13.6723 18.3334 14.1667C18.3334 14.8298 18.07 15.4657 17.6012 15.9345C17.1323 16.4034 16.4964 16.6667 15.8334 16.6667Z" fill="#3922C5"/>
</svg>
